<svg data-v-423bf9ae="" xmlns="http://www.w3.org/2000/svg" viewBox="0 0 464 91" class="iconLeftSlogan"><!----><!----><!----><g data-v-423bf9ae="" id="43f083f8-288f-4a7b-a432-71307895848b" fill="white" transform="matrix(4.7206926345825195,0,0,4.7206926345825195,114.30555725097656,-19.307632446289062)"><path d="M4.34 14.13L4.34 14.13Q3.32 14.13 2.53 13.71L2.53 13.71L2.53 13.71Q1.75 13.29 1.32 12.52L1.32 12.52L1.32 12.52Q0.88 11.76 0.88 10.77L0.88 10.77L0.88 7.43L0.88 7.43Q0.88 6.44 1.32 5.68L1.32 5.68L1.32 5.68Q1.75 4.93 2.53 4.51L2.53 4.51L2.53 4.51Q3.32 4.09 4.34 4.09L4.34 4.09L4.34 4.09Q5.38 4.09 6.16 4.51L6.16 4.51L6.16 4.51Q6.94 4.93 7.38 5.68L7.38 5.68L7.38 5.68Q7.81 6.44 7.81 7.43L7.81 7.43L7.81 10.77L7.81 10.77Q7.81 11.76 7.38 12.52L7.38 12.52L7.38 12.52Q6.94 13.29 6.16 13.71L6.16 13.71L6.16 13.71Q5.38 14.13 4.34 14.13L4.34 14.13ZM4.34 12.96L4.34 12.96Q5.29 12.96 5.88 12.38L5.88 12.38L5.88 12.38Q6.47 11.79 6.47 10.82L6.47 10.82L6.47 7.42L6.47 7.42Q6.47 6.44 5.88 5.85L5.88 5.85L5.88 5.85Q5.29 5.25 4.34 5.25L4.34 5.25L4.34 5.25Q3.39 5.25 2.81 5.85L2.81 5.85L2.81 5.85Q2.23 6.44 2.23 7.42L2.23 7.42L2.23 10.82L2.23 10.82Q2.23 11.79 2.81 12.38L2.81 12.38L2.81 12.38Q3.39 12.96 4.34 12.96L4.34 12.96ZM9.48 16.80L9.48 16.80Q9.44 16.80 9.41 16.74L9.41 16.74L9.41 16.74Q9.38 16.69 9.38 16.59L9.38 16.59L9.38 15.88L9.38 15.88Q9.38 15.67 9.46 15.67L9.46 15.67L9.55 15.67L9.55 15.67Q10.11 15.67 10.42 15.54L10.42 15.54L10.42 15.54Q10.74 15.41 10.96 15.07L10.96 15.07L10.96 15.07Q11.17 14.73 11.37 14.04L11.37 14.04L11.37 14.04Q11.38 14.01 11.37 13.96L11.37 13.96L9.06 7.11L9.06 7.11Q9.04 7.08 9.04 7.03L9.04 7.03L9.04 7.03Q9.04 6.87 9.23 6.87L9.23 6.87L10.21 6.87L10.21 6.87Q10.39 6.87 10.44 7.04L10.44 7.04L12.03 12.08L12.03 12.08Q12.04 12.14 12.07 12.14L12.07 12.14L12.07 12.14Q12.10 12.14 12.11 12.08L12.11 12.08L13.64 7.06L13.64 7.06Q13.65 6.97 13.72 6.92L13.72 6.92L13.72 6.92Q13.79 6.87 13.87 6.87L13.87 6.87L14.85 6.87L14.85 6.87Q14.97 6.87 15.01 6.94L15.01 6.94L15.01 6.94Q15.05 7 15.02 7.11L15.02 7.11L12.52 14.49L12.52 14.49Q12.19 15.46 11.87 15.93L11.87 15.93L11.87 15.93Q11.55 16.41 11.03 16.60L11.03 16.60L11.03 16.60Q10.51 16.80 9.58 16.80L9.58 16.80L9.48 16.80ZM18.97 6.76L18.97 6.76Q19.82 6.76 20.46 7.06L20.46 7.06L20.46 7.06Q21.10 7.36 21.44 7.90L21.44 7.90L21.44 7.90Q21.78 8.44 21.78 9.13L21.78 9.13L21.78 13.79L21.78 13.79Q21.78 13.89 21.73 13.94L21.73 13.94L21.73 13.94Q21.67 14 21.57 14L21.57 14L20.65 14L20.65 14Q20.55 14 20.50 13.94L20.50 13.94L20.50 13.94Q20.44 13.89 20.44 13.79L20.44 13.79L20.44 13.40L20.44 13.40Q20.44 13.36 20.41 13.34L20.41 13.34L20.41 13.34Q20.38 13.33 20.36 13.36L20.36 13.36L20.36 13.36Q19.96 13.72 19.43 13.92L19.43 13.92L19.43 13.92Q18.89 14.11 18.26 14.11L18.26 14.11L18.26 14.11Q17.23 14.11 16.58 13.59L16.58 13.59L16.58 13.59Q15.92 13.06 15.92 12.00L15.92 12.00L15.92 12.00Q15.92 10.91 16.68 10.28L16.68 10.28L16.68 10.28Q17.44 9.66 18.82 9.66L18.82 9.66L20.37 9.66L20.37 9.66Q20.44 9.66 20.44 9.59L20.44 9.59L20.44 9.23L20.44 9.23Q20.44 8.61 20.08 8.27L20.08 8.27L20.08 8.27Q19.73 7.92 19.00 7.92L19.00 7.92L19.00 7.92Q18.42 7.92 18.07 8.13L18.07 8.13L18.07 8.13Q17.71 8.34 17.60 8.72L17.60 8.72L17.60 8.72Q17.54 8.90 17.36 8.89L17.36 8.89L16.35 8.76L16.35 8.76Q16.25 8.75 16.20 8.70L16.20 8.70L16.20 8.70Q16.14 8.65 16.16 8.58L16.16 8.58L16.16 8.58Q16.28 7.78 17.06 7.27L17.06 7.27L17.06 7.27Q17.84 6.76 18.97 6.76L18.97 6.76ZM18.59 12.98L18.59 12.98Q19.33 12.98 19.89 12.59L19.89 12.59L19.89 12.59Q20.44 12.19 20.44 11.59L20.44 11.59L20.44 10.78L20.44 10.78Q20.44 10.71 20.37 10.71L20.37 10.71L19.07 10.71L19.07 10.71Q18.24 10.71 17.75 11.03L17.75 11.03L17.75 11.03Q17.26 11.35 17.26 11.93L17.26 11.93L17.26 11.93Q17.26 12.45 17.63 12.71L17.63 12.71L17.63 12.71Q18.00 12.98 18.59 12.98L18.59 12.98ZM26.10 14.08L26.10 14.08Q25.27 14.08 24.63 13.83L24.63 13.83L24.63 13.83Q24.00 13.58 23.65 13.14L23.65 13.14L23.65 13.14Q23.30 12.70 23.30 12.17L23.30 12.17L23.30 12.08L23.30 12.08Q23.30 11.98 23.35 11.93L23.35 11.93L23.35 11.93Q23.41 11.87 23.51 11.87L23.51 11.87L24.37 11.87L24.37 11.87Q24.47 11.87 24.53 11.90L24.53 11.90L24.53 11.90Q24.58 11.93 24.58 11.97L24.58 11.97L24.58 12.08L24.58 12.08Q24.58 12.47 25.01 12.77L25.01 12.77L25.01 12.77Q25.44 13.06 26.08 13.06L26.08 13.06L26.08 13.06Q26.73 13.06 27.12 12.79L27.12 12.79L27.12 12.79Q27.51 12.52 27.51 12.10L27.51 12.10L27.51 12.10Q27.51 11.69 27.15 11.49L27.15 11.49L27.15 11.49Q26.78 11.28 25.97 11.06L25.97 11.06L25.97 11.06Q25.17 10.84 24.63 10.61L24.63 10.61L24.63 10.61Q24.09 10.37 23.72 9.95L23.72 9.95L23.72 9.95Q23.35 9.52 23.35 8.85L23.35 8.85L23.35 8.85Q23.35 7.91 24.09 7.36L24.09 7.36L24.09 7.36Q24.82 6.80 26.04 6.80L26.04 6.80L26.04 6.80Q26.85 6.80 27.48 7.06L27.48 7.06L27.48 7.06Q28.10 7.32 28.43 7.78L28.43 7.78L28.43 7.78Q28.77 8.25 28.77 8.82L28.77 8.82L28.77 8.82Q28.77 8.90 28.71 8.95L28.71 8.95L28.71 8.95Q28.66 9.00 28.56 9.00L28.56 9.00L27.72 9.00L27.72 9.00Q27.62 9.00 27.57 8.97L27.57 8.97L27.57 8.97Q27.51 8.95 27.51 8.90L27.51 8.90L27.51 8.82L27.51 8.82Q27.51 8.41 27.11 8.14L27.11 8.14L27.11 8.14Q26.71 7.87 26.03 7.87L26.03 7.87L26.03 7.87Q25.41 7.87 25.02 8.11L25.02 8.11L25.02 8.11Q24.64 8.34 24.64 8.75L24.64 8.75L24.64 8.75Q24.64 9.16 25.01 9.37L25.01 9.37L25.01 9.37Q25.38 9.58 26.21 9.81L26.21 9.81L26.21 9.81Q27.02 10.04 27.56 10.25L27.56 10.25L27.56 10.25Q28.10 10.47 28.48 10.90L28.48 10.90L28.48 10.90Q28.85 11.33 28.85 12.01L28.85 12.01L28.85 12.01Q28.85 12.96 28.11 13.52L28.11 13.52L28.11 13.52Q27.36 14.08 26.10 14.08L26.10 14.08ZM34.66 7.08L34.66 7.08Q34.66 6.99 34.72 6.93L34.72 6.93L34.72 6.93Q34.78 6.87 34.87 6.87L34.87 6.87L35.78 6.87L35.78 6.87Q35.88 6.87 35.94 6.93L35.94 6.93L35.94 6.93Q35.99 6.99 35.99 7.08L35.99 7.08L35.99 13.79L35.99 13.79Q35.99 13.89 35.94 13.94L35.94 13.94L35.94 13.94Q35.88 14 35.78 14L35.78 14L34.87 14L34.87 14Q34.78 14 34.72 13.94L34.72 13.94L34.72 13.94Q34.66 13.89 34.66 13.79L34.66 13.79L34.66 13.37L34.66 13.37Q34.66 13.33 34.64 13.32L34.64 13.32L34.64 13.32Q34.61 13.31 34.58 13.34L34.58 13.34L34.58 13.34Q34.02 14.10 32.87 14.10L32.87 14.10L32.87 14.10Q32.19 14.10 31.61 13.83L31.61 13.83L31.61 13.83Q31.02 13.57 30.67 13.05L30.67 13.05L30.67 13.05Q30.32 12.53 30.32 11.79L30.32 11.79L30.32 7.08L30.32 7.08Q30.32 6.99 30.38 6.93L30.38 6.93L30.38 6.93Q30.44 6.87 30.53 6.87L30.53 6.87L31.44 6.87L31.44 6.87Q31.54 6.87 31.60 6.93L31.60 6.93L31.60 6.93Q31.65 6.99 31.65 7.08L31.65 7.08L31.65 11.37L31.65 11.37Q31.65 12.10 32.04 12.52L32.04 12.52L32.04 12.52Q32.42 12.94 33.12 12.94L33.12 12.94L33.12 12.94Q33.82 12.94 34.24 12.51L34.24 12.51L34.24 12.51Q34.66 12.08 34.66 11.37L34.66 11.37L34.66 7.08ZM41.15 14L41.15 14Q41.05 14 40.99 13.94L40.99 13.94L40.99 13.94Q40.94 13.89 40.94 13.79L40.94 13.79L40.94 4.41L40.94 4.41Q40.94 4.31 40.99 4.26L40.99 4.26L40.99 4.26Q41.05 4.20 41.15 4.20L41.15 4.20L42.08 4.20L42.08 4.20Q42.25 4.20 42.34 4.34L42.34 4.34L44.69 8.09L44.69 8.09Q44.73 8.18 44.77 8.09L44.77 8.09L47.14 4.34L47.14 4.34Q47.22 4.20 47.39 4.20L47.39 4.20L48.33 4.20L48.33 4.20Q48.43 4.20 48.48 4.26L48.48 4.26L48.48 4.26Q48.54 4.31 48.54 4.41L48.54 4.41L48.54 13.79L48.54 13.79Q48.54 13.89 48.48 13.94L48.48 13.94L48.48 13.94Q48.43 14 48.33 14L48.33 14L47.40 14L47.40 14Q47.31 14 47.25 13.94L47.25 13.94L47.25 13.94Q47.19 13.89 47.19 13.79L47.19 13.79L47.19 6.68L47.19 6.68Q47.19 6.62 47.17 6.62L47.17 6.62L47.17 6.62Q47.14 6.61 47.11 6.65L47.11 6.65L45.21 9.76L45.21 9.76Q45.12 9.90 44.95 9.90L44.95 9.90L44.51 9.90L44.51 9.90Q44.34 9.90 44.25 9.76L44.25 9.76L42.36 6.65L42.36 6.65Q42.34 6.61 42.31 6.62L42.31 6.62L42.31 6.62Q42.28 6.62 42.28 6.68L42.28 6.68L42.28 13.79L42.28 13.79Q42.28 13.89 42.22 13.94L42.22 13.94L42.22 13.94Q42.17 14 42.07 14L42.07 14L41.15 14ZM53.66 12.96L53.66 12.96Q54.80 12.95 55.29 12.08L55.29 12.08L55.29 12.08Q55.36 11.96 55.44 11.96L55.44 11.96L55.44 11.96Q55.51 11.96 55.57 12.00L55.57 12.00L56.14 12.35L56.14 12.35Q56.25 12.42 56.25 12.53L56.25 12.53L56.22 12.64L56.22 12.64Q55.85 13.33 55.15 13.72L55.15 13.72L55.15 13.72Q54.46 14.11 53.54 14.11L53.54 14.11L53.54 14.11Q52.54 14.11 51.86 13.67L51.86 13.67L51.86 13.67Q51.17 13.23 50.82 12.40L50.82 12.40L50.82 12.40Q50.47 11.55 50.47 10.40L50.47 10.40L50.47 10.40Q50.47 9.38 50.62 8.85L50.62 8.85L50.62 8.85Q50.88 7.88 51.63 7.32L51.63 7.32L51.63 7.32Q52.39 6.76 53.47 6.76L53.47 6.76L53.47 6.76Q54.80 6.76 55.50 7.46L55.50 7.46L55.50 7.46Q56.20 8.15 56.41 9.46L56.41 9.46L56.41 9.46Q56.48 9.98 56.50 10.72L56.50 10.72L56.50 10.72Q56.50 10.93 56.29 10.93L56.29 10.93L51.87 10.93L51.87 10.93Q51.80 10.93 51.80 11.00L51.80 11.00L51.80 11.00Q51.83 11.54 51.90 11.76L51.90 11.76L51.90 11.76Q52.05 12.32 52.51 12.64L52.51 12.64L52.51 12.64Q52.98 12.96 53.66 12.96L53.66 12.96ZM53.47 7.92L53.47 7.92Q52.85 7.92 52.47 8.22L52.47 8.22L52.47 8.22Q52.08 8.51 51.94 9.03L51.94 9.03L51.94 9.03Q51.84 9.34 51.81 9.81L51.81 9.81L51.81 9.81Q51.81 9.88 51.88 9.88L51.88 9.88L55.06 9.88L55.06 9.88Q55.13 9.88 55.13 9.81L55.13 9.81L55.13 9.81Q55.10 9.35 55.05 9.13L55.05 9.13L55.05 9.13Q54.91 8.58 54.49 8.25L54.49 8.25L54.49 8.25Q54.08 7.92 53.47 7.92L53.47 7.92ZM60.82 6.76L60.82 6.76Q61.67 6.76 62.31 7.06L62.31 7.06L62.31 7.06Q62.94 7.36 63.29 7.90L63.29 7.90L63.29 7.90Q63.63 8.44 63.63 9.13L63.63 9.13L63.63 13.79L63.63 13.79Q63.63 13.89 63.57 13.94L63.57 13.94L63.57 13.94Q63.52 14 63.42 14L63.42 14L62.50 14L62.50 14Q62.40 14 62.34 13.94L62.34 13.94L62.34 13.94Q62.29 13.89 62.29 13.79L62.29 13.79L62.29 13.40L62.29 13.40Q62.29 13.36 62.26 13.34L62.26 13.34L62.26 13.34Q62.23 13.33 62.20 13.36L62.20 13.36L62.20 13.36Q61.81 13.72 61.27 13.92L61.27 13.92L61.27 13.92Q60.73 14.11 60.10 14.11L60.10 14.11L60.10 14.11Q59.08 14.11 58.42 13.59L58.42 13.59L58.42 13.59Q57.76 13.06 57.76 12.00L57.76 12.00L57.76 12.00Q57.76 10.91 58.53 10.28L58.53 10.28L58.53 10.28Q59.29 9.66 60.66 9.66L60.66 9.66L62.22 9.66L62.22 9.66Q62.29 9.66 62.29 9.59L62.29 9.59L62.29 9.23L62.29 9.23Q62.29 8.61 61.93 8.27L61.93 8.27L61.93 8.27Q61.57 7.92 60.84 7.92L60.84 7.92L60.84 7.92Q60.27 7.92 59.91 8.13L59.91 8.13L59.91 8.13Q59.56 8.34 59.44 8.72L59.44 8.72L59.44 8.72Q59.39 8.90 59.21 8.89L59.21 8.89L58.20 8.76L58.20 8.76Q58.10 8.75 58.04 8.70L58.04 8.70L58.04 8.70Q57.99 8.65 58.00 8.58L58.00 8.58L58.00 8.58Q58.13 7.78 58.91 7.27L58.91 7.27L58.91 7.27Q59.68 6.76 60.82 6.76L60.82 6.76ZM60.44 12.98L60.44 12.98Q61.18 12.98 61.73 12.59L61.73 12.59L61.73 12.59Q62.29 12.19 62.29 11.59L62.29 11.59L62.29 10.78L62.29 10.78Q62.29 10.71 62.22 10.71L62.22 10.71L60.91 10.71L60.91 10.71Q60.09 10.71 59.60 11.03L59.60 11.03L59.60 11.03Q59.11 11.35 59.11 11.93L59.11 11.93L59.11 11.93Q59.11 12.45 59.48 12.71L59.48 12.71L59.48 12.71Q59.85 12.98 60.44 12.98L60.44 12.98ZM65.66 14L65.66 14Q65.56 14 65.51 13.94L65.51 13.94L65.51 13.94Q65.45 13.89 65.45 13.79L65.45 13.79L65.45 4.41L65.45 4.41Q65.45 4.31 65.51 4.26L65.51 4.26L65.51 4.26Q65.56 4.20 65.66 4.20L65.66 4.20L66.58 4.20L66.58 4.20Q66.68 4.20 66.74 4.26L66.74 4.26L66.74 4.26Q66.79 4.31 66.79 4.41L66.79 4.41L66.79 13.79L66.79 13.79Q66.79 13.89 66.74 13.94L66.74 13.94L66.74 13.94Q66.68 14 66.58 14L66.58 14L65.66 14ZM71.27 14.08L71.27 14.08Q70.45 14.08 69.81 13.83L69.81 13.83L69.81 13.83Q69.17 13.58 68.82 13.14L68.82 13.14L68.82 13.14Q68.47 12.70 68.47 12.17L68.47 12.17L68.47 12.08L68.47 12.08Q68.47 11.98 68.53 11.93L68.53 11.93L68.53 11.93Q68.59 11.87 68.68 11.87L68.68 11.87L69.55 11.87L69.55 11.87Q69.65 11.87 69.71 11.90L69.71 11.90L69.71 11.90Q69.76 11.93 69.76 11.97L69.76 11.97L69.76 12.08L69.76 12.08Q69.76 12.47 70.19 12.77L70.19 12.77L70.19 12.77Q70.62 13.06 71.26 13.06L71.26 13.06L71.26 13.06Q71.90 13.06 72.30 12.79L72.30 12.79L72.30 12.79Q72.69 12.52 72.69 12.10L72.69 12.10L72.69 12.10Q72.69 11.69 72.32 11.49L72.32 11.49L72.32 11.49Q71.96 11.28 71.15 11.06L71.15 11.06L71.15 11.06Q70.35 10.84 69.81 10.61L69.81 10.61L69.81 10.61Q69.27 10.37 68.90 9.95L68.90 9.95L68.90 9.95Q68.53 9.52 68.53 8.85L68.53 8.85L68.53 8.85Q68.53 7.91 69.27 7.36L69.27 7.36L69.27 7.36Q70 6.80 71.22 6.80L71.22 6.80L71.22 6.80Q72.03 6.80 72.65 7.06L72.65 7.06L72.65 7.06Q73.28 7.32 73.61 7.78L73.61 7.78L73.61 7.78Q73.95 8.25 73.95 8.82L73.95 8.82L73.95 8.82Q73.95 8.90 73.89 8.95L73.89 8.95L73.89 8.95Q73.84 9.00 73.74 9.00L73.74 9.00L72.90 9.00L72.90 9.00Q72.80 9.00 72.74 8.97L72.74 8.97L72.74 8.97Q72.69 8.95 72.69 8.90L72.69 8.90L72.69 8.82L72.69 8.82Q72.69 8.41 72.29 8.14L72.29 8.14L72.29 8.14Q71.89 7.87 71.20 7.87L71.20 7.87L71.20 7.87Q70.59 7.87 70.20 8.11L70.20 8.11L70.20 8.11Q69.82 8.34 69.82 8.75L69.82 8.75L69.82 8.75Q69.82 9.16 70.19 9.37L70.19 9.37L70.19 9.37Q70.56 9.58 71.39 9.81L71.39 9.81L71.39 9.81Q72.20 10.04 72.74 10.25L72.74 10.25L72.74 10.25Q73.28 10.47 73.65 10.90L73.65 10.90L73.65 10.90Q74.03 11.33 74.03 12.01L74.03 12.01L74.03 12.01Q74.03 12.96 73.28 13.52L73.28 13.52L73.28 13.52Q72.53 14.08 71.27 14.08L71.27 14.08Z"></path></g><!----><g data-v-423bf9ae="" id="5c366ded-9e8e-42ea-9f07-857429a9c923" transform="matrix(1.0939871072769165,0,0,1.0939871072769165,-4.69977331161499,-8.833284378051758)" stroke="none" fill="white"><path d="M41.566 44.655c-5.268-5.268 2.462-13.901-7.3-23.664-7.823-7.823-22.103-10.663-26.91-5.855S5.39 34.223 13.211 42.045c9.763 9.764 18.397 2.032 23.665 7.3 3.835 3.835 34.765 38.495 36.636 40.366 2.067 2.066 5.629 1.858 7.953-.467 2.326-2.326 2.534-5.888.468-7.954-1.871-1.87-36.557-32.824-40.367-36.635z"></path><path d="M94.533 20.961c-.53-.529-1.293-.624-1.706-.211L76.282 37.295c-.412.412-1.178.316-1.707-.214l-.039-.038c-.529-.53-.626-1.296-.214-1.708l16.546-16.544c.412-.413.318-1.177-.212-1.706-.529-.528-1.292-.623-1.703-.21L72.407 33.42c-.412.412-1.177.315-1.708-.214l-.037-.038c-.532-.531-.627-1.295-.214-1.708l16.544-16.545c.413-.412.318-1.176-.211-1.705s-1.293-.624-1.705-.211L68.532 29.544c-.413.411-1.179.316-1.708-.214l-.038-.039c-.531-.529-.627-1.294-.215-1.708l16.545-16.544c.413-.412.318-1.176-.211-1.705s-1.292-.624-1.705-.211L59.771 30.552c-2.856 3.241.563 8.272-2.731 11.567l-2.541 2.536c-.736.735-2.613 2.475-5.17 4.81a2618.57 2618.57 0 0 0 5.305 4.81c2.222-2.428 3.868-4.202 4.575-4.909l2.538-2.538c3.295-3.296 8.327.125 11.569-2.733l21.427-21.428c.413-.414.319-1.177-.21-1.706zM14.131 81.29c-2.066 2.066-1.857 5.628.467 7.954 2.326 2.325 5.887 2.533 7.954.467 1.186-1.187 14.072-15.556 24.317-26.886-2.01-2.223-3.894-4.303-5.538-6.106C29.949 67 15.329 80.093 14.131 81.29z"></path></g><!----><g data-v-423bf9ae="" id="c056a435-0ae9-422e-9c70-64a703df6587" fill="white" transform="matrix(0.9191953539848328,0,0,0.9191953539848328,117.81633758544922,56.51625061035156)"><path d="M7.83 3.92L7.48 3.92L1.89 3.92L0.70 3.92L0.70 4.19C0.70 4.34 0.80 4.42 0.98 4.44L1.12 4.44C1.19 4.44 1.29 4.45 1.43 4.45C1.57 4.45 1.72 4.47 1.89 4.47L1.89 13.26C1.72 13.26 1.57 13.27 1.43 13.27C1.29 13.27 1.19 13.29 1.12 13.29L0.98 13.29C0.80 13.30 0.70 13.38 0.70 13.54L0.70 13.82L1.89 13.82L2.60 13.82L3.78 13.82L3.78 13.54C3.78 13.38 3.70 13.30 3.51 13.29L3.37 13.29C3.30 13.29 3.21 13.27 3.07 13.27C2.93 13.27 2.77 13.26 2.60 13.26L2.60 9.27L6.30 9.27L6.30 8.67L2.60 8.67L2.60 4.51L7.21 4.51C7.24 5.18 7.27 5.56 7.27 5.63C7.28 5.85 7.38 5.96 7.57 5.96L7.91 5.96L7.91 3.92ZM25.30 8.86C25.30 8.11 25.17 7.41 24.95 6.79C24.72 6.17 24.40 5.64 23.98 5.19C23.56 4.75 23.07 4.40 22.50 4.16C21.92 3.92 21.27 3.79 20.57 3.79C19.87 3.79 19.24 3.92 18.66 4.16C18.09 4.40 17.58 4.75 17.16 5.19C16.74 5.64 16.42 6.17 16.20 6.79C15.97 7.41 15.85 8.11 15.85 8.86C15.85 9.63 15.97 10.33 16.20 10.95C16.42 11.56 16.74 12.10 17.16 12.54C17.58 12.99 18.09 13.33 18.66 13.57C19.24 13.80 19.87 13.93 20.57 13.93C21.27 13.93 21.92 13.80 22.50 13.57C23.07 13.33 23.56 12.99 23.98 12.54C24.40 12.10 24.72 11.56 24.95 10.95C25.17 10.33 25.30 9.63 25.30 8.86ZM24.54 8.86C24.54 9.56 24.46 10.18 24.26 10.72C24.07 11.27 23.80 11.75 23.45 12.12C23.10 12.50 22.68 12.81 22.19 13.01C21.70 13.20 21.17 13.30 20.57 13.30C19.98 13.30 19.45 13.20 18.96 13.01C18.47 12.81 18.05 12.50 17.70 12.12C17.35 11.75 17.07 11.27 16.87 10.72C16.67 10.18 16.59 9.56 16.59 8.86C16.59 8.18 16.67 7.55 16.87 7.00C17.07 6.45 17.35 5.98 17.70 5.60C18.05 5.22 18.47 4.91 18.96 4.72C19.45 4.52 19.98 4.41 20.57 4.41C21.17 4.41 21.70 4.52 22.19 4.72C22.68 4.91 23.10 5.22 23.45 5.60C23.80 5.98 24.07 6.45 24.26 7.00C24.46 7.55 24.54 8.18 24.54 8.86ZM42.84 8.86C42.84 8.11 42.71 7.41 42.49 6.79C42.27 6.17 41.94 5.64 41.52 5.19C41.10 4.75 40.61 4.40 40.04 4.16C39.47 3.92 38.81 3.79 38.11 3.79C37.41 3.79 36.78 3.92 36.20 4.16C35.63 4.40 35.13 4.75 34.71 5.19C34.29 5.64 33.96 6.17 33.74 6.79C33.52 7.41 33.39 8.11 33.39 8.86C33.39 9.63 33.52 10.33 33.74 10.95C33.96 11.56 34.29 12.10 34.71 12.54C35.13 12.99 35.63 13.33 36.20 13.57C36.78 13.80 37.41 13.93 38.11 13.93C38.81 13.93 39.47 13.80 40.04 13.57C40.61 13.33 41.10 12.99 41.52 12.54C41.94 12.10 42.27 11.56 42.49 10.95C42.71 10.33 42.84 9.63 42.84 8.86ZM42.08 8.86C42.08 9.56 42 10.18 41.80 10.72C41.61 11.27 41.34 11.75 40.99 12.12C40.64 12.50 40.22 12.81 39.73 13.01C39.24 13.20 38.71 13.30 38.11 13.30C37.52 13.30 36.99 13.20 36.50 13.01C36.01 12.81 35.59 12.50 35.24 12.12C34.89 11.75 34.61 11.27 34.41 10.72C34.22 10.18 34.13 9.56 34.13 8.86C34.13 8.18 34.22 7.55 34.41 7.00C34.61 6.45 34.89 5.98 35.24 5.60C35.59 5.22 36.01 4.91 36.50 4.72C36.99 4.52 37.52 4.41 38.11 4.41C38.71 4.41 39.24 4.52 39.73 4.72C40.22 4.91 40.64 5.22 40.99 5.60C41.34 5.98 41.61 6.45 41.80 7.00C42 7.55 42.08 8.18 42.08 8.86ZM60.12 6.80C59.89 6.19 59.57 5.68 59.15 5.25C58.73 4.82 58.24 4.48 57.67 4.26C57.09 4.03 56.43 3.92 55.73 3.92L52.30 3.92L51.11 3.92L51.11 4.19C51.11 4.34 51.21 4.42 51.39 4.44L51.53 4.44C51.60 4.44 51.70 4.45 51.84 4.45C51.98 4.45 52.14 4.47 52.30 4.47L52.30 13.26C52.14 13.26 51.98 13.27 51.84 13.27C51.70 13.27 51.60 13.29 51.53 13.29L51.39 13.29C51.21 13.30 51.11 13.38 51.11 13.54L51.11 13.82L52.30 13.82L55.73 13.82C56.43 13.82 57.09 13.71 57.67 13.48C58.24 13.26 58.73 12.92 59.15 12.49C59.57 12.05 59.89 11.54 60.12 10.92C60.34 10.30 60.47 9.63 60.47 8.86C60.47 8.11 60.34 7.42 60.12 6.80ZM59.43 10.72C59.23 11.27 58.98 11.72 58.63 12.10C58.28 12.47 57.86 12.75 57.37 12.95C56.88 13.15 56.34 13.24 55.73 13.24L53.02 13.24L53.02 4.49L55.73 4.49C56.34 4.49 56.88 4.59 57.37 4.79C57.86 4.98 58.28 5.26 58.63 5.64C58.98 6.02 59.23 6.47 59.43 7.01C59.63 7.56 59.72 8.18 59.72 8.86C59.72 9.56 59.63 10.18 59.43 10.72ZM68.66 13.23C68.66 13.41 68.70 13.57 68.81 13.68C68.92 13.79 69.08 13.85 69.24 13.85L69.36 13.85C69.38 13.85 69.41 13.83 69.44 13.82C69.43 13.99 69.38 14.14 69.33 14.29C69.27 14.45 69.20 14.57 69.13 14.70C69.06 14.83 68.99 14.94 68.92 15.02C68.85 15.11 68.78 15.19 68.74 15.23C68.73 15.25 68.71 15.27 68.70 15.30C68.68 15.33 68.67 15.33 68.67 15.36C68.67 15.40 68.68 15.44 68.73 15.48L68.84 15.58C68.99 15.43 69.15 15.29 69.27 15.11C69.40 14.92 69.51 14.74 69.61 14.55C69.71 14.35 69.76 14.15 69.82 13.96C69.87 13.76 69.89 13.58 69.89 13.38C69.89 13.16 69.83 12.98 69.72 12.84C69.61 12.70 69.45 12.63 69.26 12.63C69.08 12.63 68.94 12.70 68.82 12.81C68.71 12.92 68.66 13.06 68.66 13.23ZM96.43 3.92L96.24 3.92L88.94 3.92L88.73 3.92L88.63 3.92L88.63 5.96L88.98 5.96C89.18 5.96 89.26 5.85 89.28 5.63C89.28 5.53 89.31 5.17 89.33 4.52L92.23 4.52L92.23 13.26C92.06 13.26 91.92 13.27 91.78 13.27C91.64 13.27 91.53 13.29 91.46 13.29L91.34 13.29C91.15 13.30 91.06 13.38 91.06 13.54L91.06 13.82L92.23 13.82L92.95 13.82L94.14 13.82L94.14 13.54C94.14 13.38 94.04 13.30 93.86 13.29L93.72 13.29C93.65 13.29 93.55 13.27 93.41 13.27C93.27 13.27 93.11 13.26 92.95 13.26L92.95 4.52L95.83 4.52C95.87 5.24 95.89 5.60 95.89 5.63C95.90 5.85 96.00 5.96 96.19 5.96L96.53 5.96L96.53 3.92ZM114.37 4.44C114.55 4.42 114.65 4.34 114.65 4.19L114.65 3.92L113.47 3.92L112.74 3.92L111.57 3.92L111.57 4.19C111.57 4.34 111.66 4.42 111.85 4.44L111.97 4.44C112.04 4.44 112.15 4.45 112.29 4.45C112.43 4.45 112.57 4.47 112.74 4.47L112.74 8.53L106.54 8.53L106.54 4.47C106.71 4.47 106.86 4.45 107.00 4.45C107.14 4.45 107.24 4.44 107.31 4.44L107.45 4.44C107.63 4.42 107.72 4.34 107.72 4.19L107.72 3.92L106.54 3.92L105.83 3.92L104.64 3.92L104.64 4.19C104.64 4.34 104.73 4.42 104.92 4.44L105.06 4.44C105.13 4.44 105.22 4.45 105.36 4.45C105.50 4.45 105.66 4.47 105.83 4.47L105.83 13.26C105.66 13.26 105.50 13.27 105.36 13.27C105.22 13.27 105.13 13.29 105.06 13.29L104.92 13.29C104.73 13.30 104.64 13.38 104.64 13.54L104.64 13.82L105.83 13.82L106.54 13.82L107.72 13.82L107.72 13.54C107.72 13.38 107.63 13.30 107.45 13.29L107.31 13.29C107.24 13.29 107.14 13.27 107.00 13.27C106.86 13.27 106.71 13.26 106.54 13.26L106.54 9.07L112.74 9.07L112.74 13.26C112.57 13.26 112.43 13.27 112.29 13.27C112.15 13.27 112.04 13.29 111.97 13.29L111.85 13.29C111.66 13.30 111.57 13.38 111.57 13.54L111.57 13.82L112.74 13.82L113.47 13.82L114.65 13.82L114.65 13.54C114.65 13.38 114.55 13.30 114.37 13.29L114.24 13.29C114.17 13.29 114.06 13.27 113.92 13.27C113.78 13.27 113.64 13.26 113.47 13.26L113.47 4.47C113.64 4.47 113.78 4.45 113.92 4.45C114.06 4.45 114.17 4.44 114.24 4.44ZM132.29 13.22L131.82 13.17L128.04 3.91L127.33 3.91L123.54 13.17L123.09 13.22C122.91 13.23 122.82 13.33 122.82 13.50L122.82 13.82L123.27 13.82L123.56 13.82L123.82 13.82L123.91 13.82L125.23 13.82L125.23 13.50C125.23 13.31 125.12 13.23 124.91 13.22C124.89 13.22 124.87 13.20 124.82 13.20C124.78 13.20 124.73 13.19 124.63 13.19C124.53 13.19 124.40 13.19 124.26 13.17L125.24 10.75L125.31 10.57L130.05 10.57L130.12 10.75L131.10 13.17C130.96 13.19 130.84 13.19 130.75 13.19C130.65 13.19 130.58 13.20 130.54 13.20C130.49 13.20 130.47 13.22 130.45 13.22C130.24 13.23 130.13 13.31 130.13 13.50L130.13 13.82L131.45 13.82L131.54 13.82L131.81 13.82L132.09 13.82L132.55 13.82L132.55 13.50C132.55 13.33 132.47 13.23 132.29 13.22ZM127.48 5.22C127.51 5.14 127.55 5.04 127.58 4.94C127.61 4.84 127.65 4.75 127.68 4.63C127.71 4.75 127.75 4.84 127.78 4.94C127.81 5.04 127.85 5.12 127.88 5.21L129.84 10.04L125.54 10.04ZM147.21 3.92L147.01 3.92L139.72 3.92L139.51 3.92L139.41 3.92L139.41 5.96L139.76 5.96C139.96 5.96 140.04 5.85 140.06 5.63C140.06 5.53 140.08 5.17 140.11 4.52L143.01 4.52L143.01 13.26C142.84 13.26 142.70 13.27 142.56 13.27C142.42 13.27 142.31 13.29 142.24 13.29L142.11 13.29C141.93 13.30 141.83 13.38 141.83 13.54L141.83 13.82L143.01 13.82L143.72 13.82L144.91 13.82L144.91 13.54C144.91 13.38 144.82 13.30 144.63 13.29L144.49 13.29C144.42 13.29 144.33 13.27 144.19 13.27C144.05 13.27 143.89 13.26 143.72 13.26L143.72 4.52L146.61 4.52C146.65 5.24 146.66 5.60 146.66 5.63C146.68 5.85 146.78 5.96 146.97 5.96L147.31 5.96L147.31 3.92ZM173.92 3.92L173.85 3.92L173.29 3.92L173.18 3.92L171.78 3.92L171.78 4.19C171.78 4.34 171.88 4.42 172.06 4.44L172.17 4.44C172.23 4.44 172.30 4.45 172.41 4.45C172.52 4.45 172.65 4.47 172.79 4.47L170.20 8.64C170.13 8.75 170.07 8.85 170.03 8.95C169.99 9.04 169.95 9.16 169.90 9.25C169.86 9.16 169.82 9.04 169.78 8.95C169.74 8.85 169.68 8.75 169.61 8.64L167.01 4.47C167.15 4.47 167.27 4.45 167.38 4.45C167.50 4.45 167.58 4.44 167.64 4.44L167.73 4.44C167.92 4.42 168.01 4.34 168.01 4.19L168.01 3.92L166.61 3.92L166.50 3.92L165.94 3.92L165.87 3.92L165.42 3.92L165.42 4.19C165.42 4.34 165.52 4.42 165.70 4.44C165.94 4.45 166.12 4.47 166.22 4.47L169.54 9.73L169.54 13.26C169.37 13.26 169.22 13.27 169.08 13.27C168.94 13.27 168.84 13.29 168.77 13.29L168.64 13.29C168.46 13.30 168.36 13.38 168.36 13.54L168.36 13.82L169.54 13.82L170.25 13.82L171.43 13.82L171.43 13.54C171.43 13.38 171.35 13.30 171.16 13.29L171.02 13.29C170.95 13.29 170.86 13.27 170.72 13.27C170.58 13.27 170.42 13.26 170.25 13.26L170.25 9.73L173.57 4.47C173.68 4.47 173.85 4.45 174.09 4.44C174.27 4.42 174.37 4.34 174.37 4.19L174.37 3.92ZM191.11 8.86C191.11 8.11 190.99 7.41 190.76 6.79C190.54 6.17 190.22 5.64 189.80 5.19C189.38 4.75 188.89 4.40 188.31 4.16C187.74 3.92 187.08 3.79 186.38 3.79C185.68 3.79 185.05 3.92 184.48 4.16C183.90 4.40 183.40 4.75 182.98 5.19C182.56 5.64 182.24 6.17 182.01 6.79C181.79 7.41 181.66 8.11 181.66 8.86C181.66 9.63 181.79 10.33 182.01 10.95C182.24 11.56 182.56 12.10 182.98 12.54C183.40 12.99 183.90 13.33 184.48 13.57C185.05 13.80 185.68 13.93 186.38 13.93C187.08 13.93 187.74 13.80 188.31 13.57C188.89 13.33 189.38 12.99 189.80 12.54C190.22 12.10 190.54 11.56 190.76 10.95C190.99 10.33 191.11 9.63 191.11 8.86ZM190.36 8.86C190.36 9.56 190.27 10.18 190.08 10.72C189.88 11.27 189.62 11.75 189.27 12.12C188.92 12.50 188.50 12.81 188.01 13.01C187.52 13.20 186.98 13.30 186.38 13.30C185.79 13.30 185.26 13.20 184.77 13.01C184.28 12.81 183.86 12.50 183.51 12.12C183.16 11.75 182.88 11.27 182.69 10.72C182.49 10.18 182.41 9.56 182.41 8.86C182.41 8.18 182.49 7.55 182.69 7.00C182.88 6.45 183.16 5.98 183.51 5.60C183.86 5.22 184.28 4.91 184.77 4.72C185.26 4.52 185.79 4.41 186.38 4.41C186.98 4.41 187.52 4.52 188.01 4.72C188.50 4.91 188.92 5.22 189.27 5.60C189.62 5.98 189.88 6.45 190.08 7.00C190.27 7.55 190.36 8.18 190.36 8.86ZM207.35 3.92L206.64 3.92L205.28 3.92L205.28 4.19C205.28 4.34 205.38 4.42 205.56 4.44L205.73 4.44C205.83 4.44 205.97 4.45 206.14 4.45C206.30 4.45 206.47 4.47 206.64 4.47L206.64 10.04C206.64 10.50 206.57 10.92 206.43 11.33C206.29 11.73 206.09 12.08 205.83 12.38C205.56 12.67 205.25 12.89 204.88 13.06C204.50 13.23 204.08 13.31 203.60 13.31C203.13 13.31 202.69 13.23 202.31 13.06C201.94 12.89 201.61 12.66 201.36 12.36C201.10 12.07 200.91 11.72 200.77 11.33C200.63 10.93 200.56 10.50 200.56 10.04L200.56 4.47C200.73 4.47 200.90 4.45 201.07 4.45C201.24 4.45 201.38 4.44 201.47 4.44L201.64 4.44C201.82 4.42 201.92 4.34 201.92 4.19L201.92 3.92L200.56 3.92L199.85 3.92L198.67 3.92L198.67 4.19C198.67 4.34 198.76 4.42 198.94 4.44L199.08 4.44C199.15 4.44 199.25 4.45 199.39 4.45C199.53 4.45 199.68 4.47 199.85 4.47L199.85 10.04C199.85 10.58 199.93 11.09 200.10 11.56C200.27 12.04 200.52 12.46 200.84 12.81C201.17 13.16 201.57 13.44 202.03 13.64C202.50 13.83 203.03 13.93 203.60 13.93C204.18 13.93 204.69 13.83 205.16 13.64C205.62 13.44 206.02 13.16 206.35 12.81C206.67 12.46 206.92 12.04 207.09 11.56C207.26 11.09 207.35 10.58 207.35 10.04L207.35 4.47C207.52 4.47 207.66 4.45 207.80 4.45C207.94 4.45 208.05 4.44 208.12 4.44L208.25 4.44C208.43 4.42 208.53 4.34 208.53 4.19L208.53 3.92ZM233.30 11.97C233.10 11.97 233.02 12.08 233.00 12.31C233.00 12.32 233.00 12.38 232.99 12.43C232.97 12.49 232.97 12.59 232.96 12.71C232.95 12.84 232.93 13.01 232.92 13.20L228.83 13.20L228.83 4.47C229.00 4.47 229.14 4.45 229.28 4.45C229.42 4.45 229.53 4.44 229.60 4.44L229.73 4.44C229.91 4.42 230.01 4.34 230.01 4.19L230.01 3.92L228.83 3.92L228.12 3.92L226.93 3.92L226.93 4.19C226.93 4.34 227.02 4.42 227.21 4.44L227.35 4.44C227.42 4.44 227.51 4.45 227.65 4.45C227.79 4.45 227.95 4.47 228.12 4.47L228.12 13.26C227.95 13.26 227.79 13.27 227.65 13.27C227.51 13.27 227.42 13.29 227.35 13.29L227.21 13.29C227.02 13.30 226.93 13.38 226.93 13.54L226.93 13.82L228.12 13.82L233.39 13.82L233.52 13.82L233.65 13.82L233.65 13.55L233.65 12.99L233.65 11.97L233.37 11.97ZM250.78 8.86C250.78 8.11 250.66 7.41 250.43 6.79C250.21 6.17 249.89 5.64 249.47 5.19C249.05 4.75 248.56 4.40 247.98 4.16C247.41 3.92 246.75 3.79 246.05 3.79C245.35 3.79 244.72 3.92 244.15 4.16C243.57 4.40 243.07 4.75 242.65 5.19C242.23 5.64 241.91 6.17 241.68 6.79C241.46 7.41 241.33 8.11 241.33 8.86C241.33 9.63 241.46 10.33 241.68 10.95C241.91 11.56 242.23 12.10 242.65 12.54C243.07 12.99 243.57 13.33 244.15 13.57C244.72 13.80 245.35 13.93 246.05 13.93C246.75 13.93 247.41 13.80 247.98 13.57C248.56 13.33 249.05 12.99 249.47 12.54C249.89 12.10 250.21 11.56 250.43 10.95C250.66 10.33 250.78 9.63 250.78 8.86ZM250.03 8.86C250.03 9.56 249.94 10.18 249.75 10.72C249.55 11.27 249.28 11.75 248.93 12.12C248.58 12.50 248.16 12.81 247.67 13.01C247.18 13.20 246.65 13.30 246.05 13.30C245.46 13.30 244.93 13.20 244.44 13.01C243.95 12.81 243.53 12.50 243.18 12.12C242.83 11.75 242.55 11.27 242.35 10.72C242.16 10.18 242.07 9.56 242.07 8.86C242.07 8.18 242.16 7.55 242.35 7.00C242.55 6.45 242.83 5.98 243.18 5.60C243.53 5.22 243.95 4.91 244.44 4.72C244.93 4.52 245.46 4.41 246.05 4.41C246.65 4.41 247.18 4.52 247.67 4.72C248.16 4.91 248.58 5.22 248.93 5.60C249.28 5.98 249.55 6.45 249.75 7.00C249.94 7.55 250.03 8.18 250.03 8.86ZM267.54 3.92L266.98 3.92L266.95 3.92L265.48 3.92L265.48 4.19C265.48 4.34 265.57 4.42 265.75 4.44L265.87 4.44C265.93 4.44 266.01 4.45 266.14 4.45C266.27 4.45 266.41 4.47 266.56 4.47L263.35 12.32C263.27 12.53 263.20 12.75 263.14 13.01C263.09 12.77 263.02 12.53 262.93 12.32L259.70 4.47C259.85 4.47 260.01 4.45 260.13 4.45C260.26 4.45 260.34 4.44 260.40 4.44L260.51 4.44C260.69 4.42 260.79 4.34 260.79 4.19L260.79 3.92L259.29 3.92L258.73 3.92L258.13 3.92L258.13 4.19C258.13 4.34 258.23 4.42 258.41 4.44L258.51 4.44C258.55 4.44 258.62 4.45 258.69 4.45C258.76 4.45 258.86 4.47 258.96 4.47L262.82 13.82L263.45 13.82L267.32 4.47C267.41 4.47 267.51 4.45 267.58 4.45C267.65 4.45 267.72 4.44 267.76 4.44L267.85 4.44C268.03 4.42 268.13 4.34 268.13 4.19L268.13 3.92ZM277.37 3.92L276.18 3.92L276.18 4.19C276.18 4.34 276.28 4.42 276.46 4.44L276.60 4.44C276.67 4.44 276.77 4.45 276.91 4.45C277.05 4.45 277.20 4.47 277.37 4.47L277.37 13.26C277.20 13.26 277.05 13.27 276.91 13.27C276.77 13.27 276.67 13.29 276.60 13.29L276.46 13.29C276.28 13.30 276.19 13.38 276.19 13.54L276.19 13.82L277.37 13.82L283.30 13.82L283.30 13.22L283.30 11.76L282.95 11.76C282.76 11.76 282.67 11.89 282.66 12.11C282.66 12.14 282.65 12.19 282.65 12.29C282.65 12.39 282.65 12.53 282.63 12.74C282.62 12.95 282.60 13.09 282.60 13.22L278.08 13.22L278.08 9.09L282.03 9.09L282.03 8.51L278.08 8.51L278.08 4.51L282.60 4.51C282.63 5.12 282.66 5.50 282.66 5.63C282.67 5.85 282.76 5.96 282.95 5.96L283.30 5.96L283.30 4.51L283.30 3.92ZM300.89 6.80C300.66 6.19 300.34 5.68 299.92 5.25C299.50 4.82 299.01 4.48 298.44 4.26C297.86 4.03 297.21 3.92 296.51 3.92L293.08 3.92L291.89 3.92L291.89 4.19C291.89 4.34 291.98 4.42 292.17 4.44L292.31 4.44C292.38 4.44 292.47 4.45 292.61 4.45C292.75 4.45 292.91 4.47 293.08 4.47L293.08 13.26C292.91 13.26 292.75 13.27 292.61 13.27C292.47 13.27 292.38 13.29 292.31 13.29L292.17 13.29C291.98 13.30 291.89 13.38 291.89 13.54L291.89 13.82L293.08 13.82L296.51 13.82C297.21 13.82 297.86 13.71 298.44 13.48C299.01 13.26 299.50 12.92 299.92 12.49C300.34 12.05 300.66 11.54 300.89 10.92C301.11 10.30 301.24 9.63 301.24 8.86C301.24 8.11 301.11 7.42 300.89 6.80ZM300.20 10.72C300.01 11.27 299.75 11.72 299.40 12.10C299.05 12.47 298.63 12.75 298.14 12.95C297.65 13.15 297.11 13.24 296.51 13.24L293.79 13.24L293.79 4.49L296.51 4.49C297.11 4.49 297.65 4.59 298.14 4.79C298.63 4.98 299.05 5.26 299.40 5.64C299.75 6.02 300.01 6.47 300.20 7.01C300.40 7.56 300.50 8.18 300.50 8.86C300.50 9.56 300.40 10.18 300.20 10.72Z"></path></g></svg>