<svg data-v-423bf9ae="" xmlns="http://www.w3.org/2000/svg" viewBox="0 0 345.31867881207137 60" class="font"><!----><!----><!----><g data-v-423bf9ae="" id="ef79ec42-012e-4b92-a28f-de903e34e914" fill="black" transform="matrix(4.7206926345825195,0,0,4.7206926345825195,-4.15420389175415,-19.307632446289062)"><path d="M4.34 14.13L4.34 14.13Q3.32 14.13 2.53 13.71L2.53 13.71L2.53 13.71Q1.75 13.29 1.32 12.52L1.32 12.52L1.32 12.52Q0.88 11.76 0.88 10.77L0.88 10.77L0.88 7.43L0.88 7.43Q0.88 6.44 1.32 5.68L1.32 5.68L1.32 5.68Q1.75 4.93 2.53 4.51L2.53 4.51L2.53 4.51Q3.32 4.09 4.34 4.09L4.34 4.09L4.34 4.09Q5.38 4.09 6.16 4.51L6.16 4.51L6.16 4.51Q6.94 4.93 7.38 5.68L7.38 5.68L7.38 5.68Q7.81 6.44 7.81 7.43L7.81 7.43L7.81 10.77L7.81 10.77Q7.81 11.76 7.38 12.52L7.38 12.52L7.38 12.52Q6.94 13.29 6.16 13.71L6.16 13.71L6.16 13.71Q5.38 14.13 4.34 14.13L4.34 14.13ZM4.34 12.96L4.34 12.96Q5.29 12.96 5.88 12.38L5.88 12.38L5.88 12.38Q6.47 11.79 6.47 10.82L6.47 10.82L6.47 7.42L6.47 7.42Q6.47 6.44 5.88 5.85L5.88 5.85L5.88 5.85Q5.29 5.25 4.34 5.25L4.34 5.25L4.34 5.25Q3.39 5.25 2.81 5.85L2.81 5.85L2.81 5.85Q2.23 6.44 2.23 7.42L2.23 7.42L2.23 10.82L2.23 10.82Q2.23 11.79 2.81 12.38L2.81 12.38L2.81 12.38Q3.39 12.96 4.34 12.96L4.34 12.96ZM9.48 16.80L9.48 16.80Q9.44 16.80 9.41 16.74L9.41 16.74L9.41 16.74Q9.38 16.69 9.38 16.59L9.38 16.59L9.38 15.88L9.38 15.88Q9.38 15.67 9.46 15.67L9.46 15.67L9.55 15.67L9.55 15.67Q10.11 15.67 10.42 15.54L10.42 15.54L10.42 15.54Q10.74 15.41 10.96 15.07L10.96 15.07L10.96 15.07Q11.17 14.73 11.37 14.04L11.37 14.04L11.37 14.04Q11.38 14.01 11.37 13.96L11.37 13.96L9.06 7.11L9.06 7.11Q9.04 7.08 9.04 7.03L9.04 7.03L9.04 7.03Q9.04 6.87 9.23 6.87L9.23 6.87L10.21 6.87L10.21 6.87Q10.39 6.87 10.44 7.04L10.44 7.04L12.03 12.08L12.03 12.08Q12.04 12.14 12.07 12.14L12.07 12.14L12.07 12.14Q12.10 12.14 12.11 12.08L12.11 12.08L13.64 7.06L13.64 7.06Q13.65 6.97 13.72 6.92L13.72 6.92L13.72 6.92Q13.79 6.87 13.87 6.87L13.87 6.87L14.85 6.87L14.85 6.87Q14.97 6.87 15.01 6.94L15.01 6.94L15.01 6.94Q15.05 7 15.02 7.11L15.02 7.11L12.52 14.49L12.52 14.49Q12.19 15.46 11.87 15.93L11.87 15.93L11.87 15.93Q11.55 16.41 11.03 16.60L11.03 16.60L11.03 16.60Q10.51 16.80 9.58 16.80L9.58 16.80L9.48 16.80ZM18.97 6.76L18.97 6.76Q19.82 6.76 20.46 7.06L20.46 7.06L20.46 7.06Q21.10 7.36 21.44 7.90L21.44 7.90L21.44 7.90Q21.78 8.44 21.78 9.13L21.78 9.13L21.78 13.79L21.78 13.79Q21.78 13.89 21.73 13.94L21.73 13.94L21.73 13.94Q21.67 14 21.57 14L21.57 14L20.65 14L20.65 14Q20.55 14 20.50 13.94L20.50 13.94L20.50 13.94Q20.44 13.89 20.44 13.79L20.44 13.79L20.44 13.40L20.44 13.40Q20.44 13.36 20.41 13.34L20.41 13.34L20.41 13.34Q20.38 13.33 20.36 13.36L20.36 13.36L20.36 13.36Q19.96 13.72 19.43 13.92L19.43 13.92L19.43 13.92Q18.89 14.11 18.26 14.11L18.26 14.11L18.26 14.11Q17.23 14.11 16.58 13.59L16.58 13.59L16.58 13.59Q15.92 13.06 15.92 12.00L15.92 12.00L15.92 12.00Q15.92 10.91 16.68 10.28L16.68 10.28L16.68 10.28Q17.44 9.66 18.82 9.66L18.82 9.66L20.37 9.66L20.37 9.66Q20.44 9.66 20.44 9.59L20.44 9.59L20.44 9.23L20.44 9.23Q20.44 8.61 20.08 8.27L20.08 8.27L20.08 8.27Q19.73 7.92 19.00 7.92L19.00 7.92L19.00 7.92Q18.42 7.92 18.07 8.13L18.07 8.13L18.07 8.13Q17.71 8.34 17.60 8.72L17.60 8.72L17.60 8.72Q17.54 8.90 17.36 8.89L17.36 8.89L16.35 8.76L16.35 8.76Q16.25 8.75 16.20 8.70L16.20 8.70L16.20 8.70Q16.14 8.65 16.16 8.58L16.16 8.58L16.16 8.58Q16.28 7.78 17.06 7.27L17.06 7.27L17.06 7.27Q17.84 6.76 18.97 6.76L18.97 6.76ZM18.59 12.98L18.59 12.98Q19.33 12.98 19.89 12.59L19.89 12.59L19.89 12.59Q20.44 12.19 20.44 11.59L20.44 11.59L20.44 10.78L20.44 10.78Q20.44 10.71 20.37 10.71L20.37 10.71L19.07 10.71L19.07 10.71Q18.24 10.71 17.75 11.03L17.75 11.03L17.75 11.03Q17.26 11.35 17.26 11.93L17.26 11.93L17.26 11.93Q17.26 12.45 17.63 12.71L17.63 12.71L17.63 12.71Q18.00 12.98 18.59 12.98L18.59 12.98ZM26.10 14.08L26.10 14.08Q25.27 14.08 24.63 13.83L24.63 13.83L24.63 13.83Q24.00 13.58 23.65 13.14L23.65 13.14L23.65 13.14Q23.30 12.70 23.30 12.17L23.30 12.17L23.30 12.08L23.30 12.08Q23.30 11.98 23.35 11.93L23.35 11.93L23.35 11.93Q23.41 11.87 23.51 11.87L23.51 11.87L24.37 11.87L24.37 11.87Q24.47 11.87 24.53 11.90L24.53 11.90L24.53 11.90Q24.58 11.93 24.58 11.97L24.58 11.97L24.58 12.08L24.58 12.08Q24.58 12.47 25.01 12.77L25.01 12.77L25.01 12.77Q25.44 13.06 26.08 13.06L26.08 13.06L26.08 13.06Q26.73 13.06 27.12 12.79L27.12 12.79L27.12 12.79Q27.51 12.52 27.51 12.10L27.51 12.10L27.51 12.10Q27.51 11.69 27.15 11.49L27.15 11.49L27.15 11.49Q26.78 11.28 25.97 11.06L25.97 11.06L25.97 11.06Q25.17 10.84 24.63 10.61L24.63 10.61L24.63 10.61Q24.09 10.37 23.72 9.95L23.72 9.95L23.72 9.95Q23.35 9.52 23.35 8.85L23.35 8.85L23.35 8.85Q23.35 7.91 24.09 7.36L24.09 7.36L24.09 7.36Q24.82 6.80 26.04 6.80L26.04 6.80L26.04 6.80Q26.85 6.80 27.48 7.06L27.48 7.06L27.48 7.06Q28.10 7.32 28.43 7.78L28.43 7.78L28.43 7.78Q28.77 8.25 28.77 8.82L28.77 8.82L28.77 8.82Q28.77 8.90 28.71 8.95L28.71 8.95L28.71 8.95Q28.66 9.00 28.56 9.00L28.56 9.00L27.72 9.00L27.72 9.00Q27.62 9.00 27.57 8.97L27.57 8.97L27.57 8.97Q27.51 8.95 27.51 8.90L27.51 8.90L27.51 8.82L27.51 8.82Q27.51 8.41 27.11 8.14L27.11 8.14L27.11 8.14Q26.71 7.87 26.03 7.87L26.03 7.87L26.03 7.87Q25.41 7.87 25.02 8.11L25.02 8.11L25.02 8.11Q24.64 8.34 24.64 8.75L24.64 8.75L24.64 8.75Q24.64 9.16 25.01 9.37L25.01 9.37L25.01 9.37Q25.38 9.58 26.21 9.81L26.21 9.81L26.21 9.81Q27.02 10.04 27.56 10.25L27.56 10.25L27.56 10.25Q28.10 10.47 28.48 10.90L28.48 10.90L28.48 10.90Q28.85 11.33 28.85 12.01L28.85 12.01L28.85 12.01Q28.85 12.96 28.11 13.52L28.11 13.52L28.11 13.52Q27.36 14.08 26.10 14.08L26.10 14.08ZM34.66 7.08L34.66 7.08Q34.66 6.99 34.72 6.93L34.72 6.93L34.72 6.93Q34.78 6.87 34.87 6.87L34.87 6.87L35.78 6.87L35.78 6.87Q35.88 6.87 35.94 6.93L35.94 6.93L35.94 6.93Q35.99 6.99 35.99 7.08L35.99 7.08L35.99 13.79L35.99 13.79Q35.99 13.89 35.94 13.94L35.94 13.94L35.94 13.94Q35.88 14 35.78 14L35.78 14L34.87 14L34.87 14Q34.78 14 34.72 13.94L34.72 13.94L34.72 13.94Q34.66 13.89 34.66 13.79L34.66 13.79L34.66 13.37L34.66 13.37Q34.66 13.33 34.64 13.32L34.64 13.32L34.64 13.32Q34.61 13.31 34.58 13.34L34.58 13.34L34.58 13.34Q34.02 14.10 32.87 14.10L32.87 14.10L32.87 14.10Q32.19 14.10 31.61 13.83L31.61 13.83L31.61 13.83Q31.02 13.57 30.67 13.05L30.67 13.05L30.67 13.05Q30.32 12.53 30.32 11.79L30.32 11.79L30.32 7.08L30.32 7.08Q30.32 6.99 30.38 6.93L30.38 6.93L30.38 6.93Q30.44 6.87 30.53 6.87L30.53 6.87L31.44 6.87L31.44 6.87Q31.54 6.87 31.60 6.93L31.60 6.93L31.60 6.93Q31.65 6.99 31.65 7.08L31.65 7.08L31.65 11.37L31.65 11.37Q31.65 12.10 32.04 12.52L32.04 12.52L32.04 12.52Q32.42 12.94 33.12 12.94L33.12 12.94L33.12 12.94Q33.82 12.94 34.24 12.51L34.24 12.51L34.24 12.51Q34.66 12.08 34.66 11.37L34.66 11.37L34.66 7.08ZM41.15 14L41.15 14Q41.05 14 40.99 13.94L40.99 13.94L40.99 13.94Q40.94 13.89 40.94 13.79L40.94 13.79L40.94 4.41L40.94 4.41Q40.94 4.31 40.99 4.26L40.99 4.26L40.99 4.26Q41.05 4.20 41.15 4.20L41.15 4.20L42.08 4.20L42.08 4.20Q42.25 4.20 42.34 4.34L42.34 4.34L44.69 8.09L44.69 8.09Q44.73 8.18 44.77 8.09L44.77 8.09L47.14 4.34L47.14 4.34Q47.22 4.20 47.39 4.20L47.39 4.20L48.33 4.20L48.33 4.20Q48.43 4.20 48.48 4.26L48.48 4.26L48.48 4.26Q48.54 4.31 48.54 4.41L48.54 4.41L48.54 13.79L48.54 13.79Q48.54 13.89 48.48 13.94L48.48 13.94L48.48 13.94Q48.43 14 48.33 14L48.33 14L47.40 14L47.40 14Q47.31 14 47.25 13.94L47.25 13.94L47.25 13.94Q47.19 13.89 47.19 13.79L47.19 13.79L47.19 6.68L47.19 6.68Q47.19 6.62 47.17 6.62L47.17 6.62L47.17 6.62Q47.14 6.61 47.11 6.65L47.11 6.65L45.21 9.76L45.21 9.76Q45.12 9.90 44.95 9.90L44.95 9.90L44.51 9.90L44.51 9.90Q44.34 9.90 44.25 9.76L44.25 9.76L42.36 6.65L42.36 6.65Q42.34 6.61 42.31 6.62L42.31 6.62L42.31 6.62Q42.28 6.62 42.28 6.68L42.28 6.68L42.28 13.79L42.28 13.79Q42.28 13.89 42.22 13.94L42.22 13.94L42.22 13.94Q42.17 14 42.07 14L42.07 14L41.15 14ZM53.66 12.96L53.66 12.96Q54.80 12.95 55.29 12.08L55.29 12.08L55.29 12.08Q55.36 11.96 55.44 11.96L55.44 11.96L55.44 11.96Q55.51 11.96 55.57 12.00L55.57 12.00L56.14 12.35L56.14 12.35Q56.25 12.42 56.25 12.53L56.25 12.53L56.22 12.64L56.22 12.64Q55.85 13.33 55.15 13.72L55.15 13.72L55.15 13.72Q54.46 14.11 53.54 14.11L53.54 14.11L53.54 14.11Q52.54 14.11 51.86 13.67L51.86 13.67L51.86 13.67Q51.17 13.23 50.82 12.40L50.82 12.40L50.82 12.40Q50.47 11.55 50.47 10.40L50.47 10.40L50.47 10.40Q50.47 9.38 50.62 8.85L50.62 8.85L50.62 8.85Q50.88 7.88 51.63 7.32L51.63 7.32L51.63 7.32Q52.39 6.76 53.47 6.76L53.47 6.76L53.47 6.76Q54.80 6.76 55.50 7.46L55.50 7.46L55.50 7.46Q56.20 8.15 56.41 9.46L56.41 9.46L56.41 9.46Q56.48 9.98 56.50 10.72L56.50 10.72L56.50 10.72Q56.50 10.93 56.29 10.93L56.29 10.93L51.87 10.93L51.87 10.93Q51.80 10.93 51.80 11.00L51.80 11.00L51.80 11.00Q51.83 11.54 51.90 11.76L51.90 11.76L51.90 11.76Q52.05 12.32 52.51 12.64L52.51 12.64L52.51 12.64Q52.98 12.96 53.66 12.96L53.66 12.96ZM53.47 7.92L53.47 7.92Q52.85 7.92 52.47 8.22L52.47 8.22L52.47 8.22Q52.08 8.51 51.94 9.03L51.94 9.03L51.94 9.03Q51.84 9.34 51.81 9.81L51.81 9.81L51.81 9.81Q51.81 9.88 51.88 9.88L51.88 9.88L55.06 9.88L55.06 9.88Q55.13 9.88 55.13 9.81L55.13 9.81L55.13 9.81Q55.10 9.35 55.05 9.13L55.05 9.13L55.05 9.13Q54.91 8.58 54.49 8.25L54.49 8.25L54.49 8.25Q54.08 7.92 53.47 7.92L53.47 7.92ZM60.82 6.76L60.82 6.76Q61.67 6.76 62.31 7.06L62.31 7.06L62.31 7.06Q62.94 7.36 63.29 7.90L63.29 7.90L63.29 7.90Q63.63 8.44 63.63 9.13L63.63 9.13L63.63 13.79L63.63 13.79Q63.63 13.89 63.57 13.94L63.57 13.94L63.57 13.94Q63.52 14 63.42 14L63.42 14L62.50 14L62.50 14Q62.40 14 62.34 13.94L62.34 13.94L62.34 13.94Q62.29 13.89 62.29 13.79L62.29 13.79L62.29 13.40L62.29 13.40Q62.29 13.36 62.26 13.34L62.26 13.34L62.26 13.34Q62.23 13.33 62.20 13.36L62.20 13.36L62.20 13.36Q61.81 13.72 61.27 13.92L61.27 13.92L61.27 13.92Q60.73 14.11 60.10 14.11L60.10 14.11L60.10 14.11Q59.08 14.11 58.42 13.59L58.42 13.59L58.42 13.59Q57.76 13.06 57.76 12.00L57.76 12.00L57.76 12.00Q57.76 10.91 58.53 10.28L58.53 10.28L58.53 10.28Q59.29 9.66 60.66 9.66L60.66 9.66L62.22 9.66L62.22 9.66Q62.29 9.66 62.29 9.59L62.29 9.59L62.29 9.23L62.29 9.23Q62.29 8.61 61.93 8.27L61.93 8.27L61.93 8.27Q61.57 7.92 60.84 7.92L60.84 7.92L60.84 7.92Q60.27 7.92 59.91 8.13L59.91 8.13L59.91 8.13Q59.56 8.34 59.44 8.72L59.44 8.72L59.44 8.72Q59.39 8.90 59.21 8.89L59.21 8.89L58.20 8.76L58.20 8.76Q58.10 8.75 58.04 8.70L58.04 8.70L58.04 8.70Q57.99 8.65 58.00 8.58L58.00 8.58L58.00 8.58Q58.13 7.78 58.91 7.27L58.91 7.27L58.91 7.27Q59.68 6.76 60.82 6.76L60.82 6.76ZM60.44 12.98L60.44 12.98Q61.18 12.98 61.73 12.59L61.73 12.59L61.73 12.59Q62.29 12.19 62.29 11.59L62.29 11.59L62.29 10.78L62.29 10.78Q62.29 10.71 62.22 10.71L62.22 10.71L60.91 10.71L60.91 10.71Q60.09 10.71 59.60 11.03L59.60 11.03L59.60 11.03Q59.11 11.35 59.11 11.93L59.11 11.93L59.11 11.93Q59.11 12.45 59.48 12.71L59.48 12.71L59.48 12.71Q59.85 12.98 60.44 12.98L60.44 12.98ZM65.66 14L65.66 14Q65.56 14 65.51 13.94L65.51 13.94L65.51 13.94Q65.45 13.89 65.45 13.79L65.45 13.79L65.45 4.41L65.45 4.41Q65.45 4.31 65.51 4.26L65.51 4.26L65.51 4.26Q65.56 4.20 65.66 4.20L65.66 4.20L66.58 4.20L66.58 4.20Q66.68 4.20 66.74 4.26L66.74 4.26L66.74 4.26Q66.79 4.31 66.79 4.41L66.79 4.41L66.79 13.79L66.79 13.79Q66.79 13.89 66.74 13.94L66.74 13.94L66.74 13.94Q66.68 14 66.58 14L66.58 14L65.66 14ZM71.27 14.08L71.27 14.08Q70.45 14.08 69.81 13.83L69.81 13.83L69.81 13.83Q69.17 13.58 68.82 13.14L68.82 13.14L68.82 13.14Q68.47 12.70 68.47 12.17L68.47 12.17L68.47 12.08L68.47 12.08Q68.47 11.98 68.53 11.93L68.53 11.93L68.53 11.93Q68.59 11.87 68.68 11.87L68.68 11.87L69.55 11.87L69.55 11.87Q69.65 11.87 69.71 11.90L69.71 11.90L69.71 11.90Q69.76 11.93 69.76 11.97L69.76 11.97L69.76 12.08L69.76 12.08Q69.76 12.47 70.19 12.77L70.19 12.77L70.19 12.77Q70.62 13.06 71.26 13.06L71.26 13.06L71.26 13.06Q71.90 13.06 72.30 12.79L72.30 12.79L72.30 12.79Q72.69 12.52 72.69 12.10L72.69 12.10L72.69 12.10Q72.69 11.69 72.32 11.49L72.32 11.49L72.32 11.49Q71.96 11.28 71.15 11.06L71.15 11.06L71.15 11.06Q70.35 10.84 69.81 10.61L69.81 10.61L69.81 10.61Q69.27 10.37 68.90 9.95L68.90 9.95L68.90 9.95Q68.53 9.52 68.53 8.85L68.53 8.85L68.53 8.85Q68.53 7.91 69.27 7.36L69.27 7.36L69.27 7.36Q70 6.80 71.22 6.80L71.22 6.80L71.22 6.80Q72.03 6.80 72.65 7.06L72.65 7.06L72.65 7.06Q73.28 7.32 73.61 7.78L73.61 7.78L73.61 7.78Q73.95 8.25 73.95 8.82L73.95 8.82L73.95 8.82Q73.95 8.90 73.89 8.95L73.89 8.95L73.89 8.95Q73.84 9.00 73.74 9.00L73.74 9.00L72.90 9.00L72.90 9.00Q72.80 9.00 72.74 8.97L72.74 8.97L72.74 8.97Q72.69 8.95 72.69 8.90L72.69 8.90L72.69 8.82L72.69 8.82Q72.69 8.41 72.29 8.14L72.29 8.14L72.29 8.14Q71.89 7.87 71.20 7.87L71.20 7.87L71.20 7.87Q70.59 7.87 70.20 8.11L70.20 8.11L70.20 8.11Q69.82 8.34 69.82 8.75L69.82 8.75L69.82 8.75Q69.82 9.16 70.19 9.37L70.19 9.37L70.19 9.37Q70.56 9.58 71.39 9.81L71.39 9.81L71.39 9.81Q72.20 10.04 72.74 10.25L72.74 10.25L72.74 10.25Q73.28 10.47 73.65 10.90L73.65 10.90L73.65 10.90Q74.03 11.33 74.03 12.01L74.03 12.01L74.03 12.01Q74.03 12.96 73.28 13.52L73.28 13.52L73.28 13.52Q72.53 14.08 71.27 14.08L71.27 14.08Z"></path></g><!----><!----></svg>